<svg id="SVGDoc" width="40" height="40" xmlns="http://www.w3.org/2000/svg" version="1.1" xmlns:xlink="http://www.w3.org/1999/xlink" xmlns:avocode="https://avocode.com/" viewBox="0 0 40 40">
	<defs>
		<path d="M373.7,7946.44v-1.38h12.45v1.38z" id="Path-0"/>
		<path d="M373.7,7943.37v-1.38h12.45v1.38z" id="Path-1"/>
		<path d="M373.7,7940.3v-1.38h12.45v1.38z" id="Path-2"/>
		<path d="M373.7,7937.24v-1.38h12.45v1.38z" id="Path-3"/>
		<path d="M373.7,7949.69v-1.38h12.45v1.38z" id="Path-4"/>
		<path d="M401.9992,7940.9996c0,11.04547 -8.95413,19.9996 -19.9996,19.9996c-11.04547,0 -19.9996,-8.95413 -19.9996,-19.9996c0,-11.04547 8.95413,-19.9996 19.9996,-19.9996c11.0456,0 19.9996,8.95413 19.9996,19.9996zM388.88547,7936.1984c0,0 0,-2.4296 -0.00014,-2.4296c0.0004,-1.34253 -1.0872,-2.4304 -2.42933,-2.4304h-13.06227c-1.3424,0 -2.43,1.08787 -2.43,2.43v17.922c0,1.34213 1.08787,2.43 2.43,2.43h13.0624c1.34147,0 2.42934,-1.08787 2.42934,-2.43zM391.99813,7933.08587h-0.0004v-2.42974c0.0004,-1.34213 -1.08746,-2.4304 -2.42893,-2.4304h-13.06227c-1.09866,0 -2.02546,0.72907 -2.32666,1.72947h12.27626c2.10214,0 3.81254,1.71067 3.81254,3.8132v17.1352c1.00053,-0.30093 1.72946,-1.2284 1.72946,-2.32667z" id="Path-5"/>
	</defs>
	<g transform="matrix(1,0,0,1,-362,-7921)">
		<g><use xlink:href="#Path-0" fill="#f02028" fill-opacity="1"/></g>
		<g><use xlink:href="#Path-1" fill="#f02028" fill-opacity="1"/></g>
		<g><use xlink:href="#Path-2" fill="#f02028" fill-opacity="1"/></g>
		<g><use xlink:href="#Path-3" fill="#f02028" fill-opacity="1"/></g>
		<g><use xlink:href="#Path-4" fill="#f02028" fill-opacity="1"/></g>
		<g><use xlink:href="#Path-5" fill="#f02028" fill-opacity="1"/></g>
	</g>
</svg>